#Comment line ignore any data following # character 
#Hierarchical Translation and Rotation (.htr) file 
[Header]	
#Header keywords are followed by a single value 
FileType HTR		#Single word string
DataType HTRS		#Translation followed by rotation and scale data
FileVersion 1		#integer
NumSegments 84		#integer
NumFrames 2		#integer
DataFrameRate 30		#integer, data frame rate in this file
EulerRotationOrder ZYX
CalibrationUnits mm
RotationUnits Degrees
GlobalAxisofGravity Y
BoneLengthAxis Y
ScaleFactor 1.00
[SegmentNames&Hierarchy]
#CHILD	PARENT
MASTER GLOBAL
root MASTER
chest root
L_mid_tent01 root
R_mid_tent01 root
spine01 root
Bip01_Neck chest
L_humerus chest
R_humerus chest
weapon_bone chest
Bip01_Head Bip01_Neck
eye_left_bone Bip01_Head
eye_right_bone Bip01_Head
L_forearm L_humerus
L_front_hand L_forearm
L_weapon_bone L_forearm
L_front_hand01_01 L_front_hand
L_front_hand02_01 L_front_hand
L_front_hand03_01 L_front_hand
L_front_hand01_02 L_front_hand01_01
L_front_hand02_02 L_front_hand02_01
L_front_hand03_02 L_front_hand03_01
R_forearm R_humerus
R_front_hand R_forearm
R_weapon_bone R_forearm
R_front_hand01_01 R_front_hand
R_front_hand02_01 R_front_hand
R_front_hand03_01 R_front_hand
R_front_hand01_02 R_front_hand01_01
R_front_hand02_02 R_front_hand02_01
R_front_hand03_02 R_front_hand03_01
null_rope01_connect L_mid_tent01
Rope1_Seg01 null_rope01_connect
Rope1_Seg02 Rope1_Seg01
Rope1_Seg03 Rope1_Seg02
Rope1_Seg04 Rope1_Seg03
Rope1_Seg05 Rope1_Seg04
Rope1_Seg06 Rope1_Seg05
Rope1_Seg07 Rope1_Seg06
Rope1_Seg09 Rope1_Seg07
L_mid_hand01 Rope1_Seg09
L_mid_hand02 Rope1_Seg09
L_mid_hand03 Rope1_Seg09
null_rope02_connect R_mid_tent01
Rope2_Seg01 null_rope02_connect
Rope2_Seg02 Rope2_Seg01
Rope2_Seg03 Rope2_Seg02
Rope2_Seg04 Rope2_Seg03
Rope2_Seg05 Rope2_Seg04
Rope2_Seg06 Rope2_Seg05
Rope2_Seg07 Rope2_Seg06
Rope2_Seg09 Rope2_Seg07
R_mid_hand01 Rope2_Seg09
R_mid_hand02 Rope2_Seg09
R_mid_hand03 Rope2_Seg09
spine02 spine01
spine03 spine02
pelvis spine03
null_rope03_connect pelvis
null_rope04_connect pelvis
Rope3_Seg01 null_rope03_connect
Rope3_Seg02 Rope3_Seg01
Rope3_Seg03 Rope3_Seg02
Rope3_Seg04 Rope3_Seg03
Rope3_Seg05 Rope3_Seg04
Rope3_Seg06 Rope3_Seg05
Rope3_Seg07 Rope3_Seg06
Rope3_Seg08 Rope3_Seg07
Rope3_Seg09 Rope3_Seg08
R_rear_hand01 Rope3_Seg09
R_rear_hand02 Rope3_Seg09
R_rear_hand03 Rope3_Seg09
Rope4_Seg01 null_rope04_connect
Rope4_Seg02 Rope4_Seg01
Rope4_Seg03 Rope4_Seg02
Rope4_Seg04 Rope4_Seg03
Rope4_Seg05 Rope4_Seg04
Rope4_Seg06 Rope4_Seg05
Rope4_Seg07 Rope4_Seg06
Rope4_Seg08 Rope4_Seg07
Rope4_Seg09 Rope4_Seg08
L_rear_hand01 Rope4_Seg09
L_rear_hand02 Rope4_Seg09
L_rear_hand03 Rope4_Seg09
[BasePosition]
#SegmentName Tx, Ty, Tz, Rx, Ry, Rz, BoneLength
MASTER 0.000000 0.000000 0.000000 -90.000000 0.000000 0.000000 10.000000 
root 0.000000 0.000000 0.000000 0.000000 0.000000 0.000000 10.000000 
chest 0.000000 0.000000 0.000000 0.000000 0.000000 0.000000 10.000000 
L_mid_tent01 0.000000 0.000000 0.000000 0.000000 0.000000 0.000000 10.000000 
R_mid_tent01 0.000000 0.000000 0.000000 0.000000 0.000000 0.000000 10.000000 
spine01 0.000000 0.000000 0.000000 0.000000 0.000000 0.000000 10.000000 
Bip01_Neck 0.000000 0.000000 0.000000 0.000000 0.000000 0.000000 10.000000 
L_humerus 0.000000 0.000000 0.000000 0.000000 0.000000 0.000000 10.000000 
R_humerus 0.000000 0.000000 0.000000 0.000000 0.000000 0.000000 10.000000 
weapon_bone 0.000000 0.000000 0.000000 0.000000 0.000000 0.000000 10.000000 
Bip01_Head 0.000000 0.000000 0.000000 0.000000 0.000000 0.000000 10.000000 
eye_left_bone 0.000000 0.000000 0.000000 0.000000 0.000000 0.000000 10.000000 
eye_right_bone 0.000000 0.000000 0.000000 0.000000 0.000000 0.000000 10.000000 
L_forearm 0.000000 0.000000 0.000000 0.000000 0.000000 0.000000 10.000000 
L_front_hand 0.000000 0.000000 0.000000 0.000000 0.000000 0.000000 10.000000 
L_weapon_bone 0.000000 0.000000 0.000000 0.000000 0.000000 0.000000 10.000000 
L_front_hand01_01 0.000000 0.000000 0.000000 0.000000 0.000000 0.000000 10.000000 
L_front_hand02_01 0.000000 0.000000 0.000000 0.000000 0.000000 0.000000 10.000000 
L_front_hand03_01 0.000000 0.000000 0.000000 0.000000 0.000000 0.000000 10.000000 
L_front_hand01_02 0.000000 0.000000 0.000000 0.000000 0.000000 0.000000 10.000000 
L_front_hand02_02 0.000000 0.000000 0.000000 0.000000 0.000000 0.000000 10.000000 
L_front_hand03_02 0.000000 0.000000 0.000000 0.000000 0.000000 0.000000 10.000000 
R_forearm 0.000000 0.000000 0.000000 0.000000 0.000000 0.000000 10.000000 
R_front_hand 0.000000 0.000000 0.000000 0.000000 0.000000 0.000000 10.000000 
R_weapon_bone 0.000000 0.000000 0.000000 0.000000 0.000000 0.000000 10.000000 
R_front_hand01_01 0.000000 0.000000 0.000000 0.000000 0.000000 0.000000 10.000000 
R_front_hand02_01 0.000000 0.000000 0.000000 0.000000 0.000000 0.000000 10.000000 
R_front_hand03_01 0.000000 0.000000 0.000000 0.000000 0.000000 0.000000 10.000000 
R_front_hand01_02 0.000000 0.000000 0.000000 0.000000 0.000000 0.000000 10.000000 
R_front_hand02_02 0.000000 0.000000 0.000000 0.000000 0.000000 0.000000 10.000000 
R_front_hand03_02 0.000000 0.000000 0.000000 0.000000 0.000000 0.000000 10.000000 
null_rope01_connect 0.000000 0.000000 0.000000 0.000000 0.000000 0.000000 10.000000 
Rope1_Seg01 0.000000 0.000000 0.000000 0.000000 0.000000 0.000000 10.000000 
Rope1_Seg02 0.000000 0.000000 0.000000 0.000000 0.000000 0.000000 10.000000 
Rope1_Seg03 0.000000 0.000000 0.000000 0.000000 0.000000 0.000000 10.000000 
Rope1_Seg04 0.000000 0.000000 0.000000 0.000000 0.000000 0.000000 10.000000 
Rope1_Seg05 0.000000 0.000000 0.000000 0.000000 0.000000 0.000000 10.000000 
Rope1_Seg06 0.000000 0.000000 0.000000 0.000000 0.000000 0.000000 10.000000 
Rope1_Seg07 0.000000 0.000000 0.000000 0.000000 0.000000 0.000000 10.000000 
Rope1_Seg09 0.000000 0.000000 0.000000 0.000000 0.000000 0.000000 10.000000 
L_mid_hand01 0.000000 0.000000 0.000000 0.000000 0.000000 0.000000 10.000000 
L_mid_hand02 0.000000 0.000000 0.000000 0.000000 0.000000 0.000000 10.000000 
L_mid_hand03 0.000000 0.000000 0.000000 0.000000 0.000000 0.000000 10.000000 
null_rope02_connect 0.000000 0.000000 0.000000 0.000000 0.000000 0.000000 10.000000 
Rope2_Seg01 0.000000 0.000000 0.000000 0.000000 0.000000 0.000000 10.000000 
Rope2_Seg02 0.000000 0.000000 0.000000 0.000000 0.000000 0.000000 10.000000 
Rope2_Seg03 0.000000 0.000000 0.000000 0.000000 0.000000 0.000000 10.000000 
Rope2_Seg04 0.000000 0.000000 0.000000 0.000000 0.000000 0.000000 10.000000 
Rope2_Seg05 0.000000 0.000000 0.000000 0.000000 0.000000 0.000000 10.000000 
Rope2_Seg06 0.000000 0.000000 0.000000 0.000000 0.000000 0.000000 10.000000 
Rope2_Seg07 0.000000 0.000000 0.000000 0.000000 0.000000 0.000000 10.000000 
Rope2_Seg09 0.000000 0.000000 0.000000 0.000000 0.000000 0.000000 10.000000 
R_mid_hand01 0.000000 0.000000 0.000000 0.000000 0.000000 0.000000 10.000000 
R_mid_hand02 0.000000 0.000000 0.000000 0.000000 0.000000 0.000000 10.000000 
R_mid_hand03 0.000000 0.000000 0.000000 0.000000 0.000000 0.000000 10.000000 
spine02 0.000000 0.000000 0.000000 0.000000 0.000000 0.000000 10.000000 
spine03 0.000000 0.000000 0.000000 0.000000 0.000000 0.000000 10.000000 
pelvis 0.000000 0.000000 0.000000 0.000000 0.000000 0.000000 10.000000 
null_rope03_connect 0.000000 0.000000 0.000000 0.000000 0.000000 0.000000 10.000000 
null_rope04_connect 0.000000 0.000000 0.000000 0.000000 0.000000 0.000000 10.000000 
Rope3_Seg01 0.000000 0.000000 0.000000 0.000000 0.000000 0.000000 10.000000 
Rope3_Seg02 0.000000 0.000000 0.000000 0.000000 0.000000 0.000000 10.000000 
Rope3_Seg03 0.000000 0.000000 0.000000 0.000000 0.000000 0.000000 10.000000 
Rope3_Seg04 0.000000 0.000000 0.000000 0.000000 0.000000 0.000000 10.000000 
Rope3_Seg05 0.000000 0.000000 0.000000 0.000000 0.000000 0.000000 10.000000 
Rope3_Seg06 0.000000 0.000000 0.000000 0.000000 0.000000 0.000000 10.000000 
Rope3_Seg07 0.000000 0.000000 0.000000 0.000000 0.000000 0.000000 10.000000 
Rope3_Seg08 0.000000 0.000000 0.000000 0.000000 0.000000 0.000000 10.000000 
Rope3_Seg09 0.000000 0.000000 0.000000 0.000000 0.000000 0.000000 10.000000 
R_rear_hand01 0.000000 0.000000 0.000000 0.000000 0.000000 0.000000 10.000000 
R_rear_hand02 0.000000 0.000000 0.000000 0.000000 0.000000 0.000000 10.000000 
R_rear_hand03 0.000000 0.000000 0.000000 0.000000 0.000000 0.000000 10.000000 
Rope4_Seg01 0.000000 0.000000 0.000000 0.000000 0.000000 0.000000 10.000000 
Rope4_Seg02 0.000000 0.000000 0.000000 0.000000 0.000000 0.000000 10.000000 
Rope4_Seg03 0.000000 0.000000 0.000000 0.000000 0.000000 0.000000 10.000000 
Rope4_Seg04 0.000000 0.000000 0.000000 0.000000 0.000000 0.000000 10.000000 
Rope4_Seg05 0.000000 0.000000 0.000000 0.000000 0.000000 0.000000 10.000000 
Rope4_Seg06 0.000000 0.000000 0.000000 0.000000 0.000000 0.000000 10.000000 
Rope4_Seg07 0.000000 0.000000 0.000000 0.000000 0.000000 0.000000 10.000000 
Rope4_Seg08 0.000000 0.000000 0.000000 0.000000 0.000000 0.000000 10.000000 
Rope4_Seg09 0.000000 0.000000 0.000000 0.000000 0.000000 0.000000 10.000000 
L_rear_hand01 0.000000 0.000000 0.000000 0.000000 0.000000 0.000000 10.000000 
L_rear_hand02 0.000000 0.000000 0.000000 0.000000 0.000000 0.000000 10.000000 
L_rear_hand03 0.000000 0.000000 0.000000 0.000000 0.000000 0.000000 10.000000 
#Beginning of Data. Separated by tabs
#Fr	Tx	Ty	Tz	Rx	Ry	Rz	SF
[MASTER]
39 0.000000 0.000000 0.000000 0.001660 0.001660 0.001660 0.000000
40 0.000000 0.000000 0.000000 0.001660 0.001660 0.001660 0.000000
[root]
39 -21.076277 1.607076 1498.744995 -91.740158 13.400836 -90.225014 1498.894043
40 -17.798759 0.448718 1499.674927 -91.740158 13.400836 -90.225014 1499.780640
[chest]
39 -84.512650 -34.090519 0.000000 -2.117274 0.462005 -179.268204 91.129311
40 -84.512650 -34.090519 0.000000 -2.117274 0.462005 -179.268204 91.129311
[L_mid_tent01]
39 27.299511 22.177458 -249.918259 -9.682768 6.625929 47.876377 252.381134
40 27.299511 22.177458 -249.918259 -10.481427 6.997950 46.987206 252.381134
[R_mid_tent01]
39 23.228794 24.509907 226.238495 -173.675293 -8.635328 49.608864 228.744751
40 23.228794 24.509907 226.238495 -173.559845 -8.284963 48.937546 228.744751
[spine01]
39 -0.361383 -0.195265 0.000000 -0.000001 -0.000007 22.052340 0.410763
40 -0.361383 -0.195265 0.000000 -0.000001 -0.000007 22.052340 0.410763
[Bip01_Neck]
39 165.484543 71.581718 0.000119 175.896118 1.177290 24.871183 180.302734
40 165.484543 71.581718 0.000119 175.896118 1.177290 24.871183 180.302734
[L_humerus]
39 -13.983130 -135.272980 -120.471481 175.474304 58.687801 -118.474754 181.680161
40 -13.983130 -135.272980 -120.471481 175.474304 58.687801 -118.474754 181.680161
[R_humerus]
39 -13.983309 -135.273102 125.287651 174.588181 -51.786896 -99.934273 184.909012
40 -13.983309 -135.273102 125.287651 174.588181 -51.786880 -99.934280 184.909012
[weapon_bone]
39 235.964890 -300.705902 0.000000 0.000000 -89.951546 -128.212341 382.234833
40 235.964890 -300.705902 0.000000 0.000000 -89.951546 -128.212341 382.234833
[Bip01_Head]
39 163.817291 272.852325 22.822264 1.693472 4.424703 -42.711670 319.069519
40 163.817291 272.852325 22.822264 1.693472 4.424703 -42.711670 319.069519
[eye_left_bone]
39 -24.626970 125.451866 -64.772606 0.000000 -90.000000 -99.840431 143.318359
40 -24.626970 125.451866 -64.772606 0.000000 -90.000000 -99.840431 143.318359
[eye_right_bone]
39 -24.626970 125.451866 64.327362 0.000000 -89.965736 80.156380 143.117676
40 -24.626970 125.451866 64.327362 0.000000 -89.965736 80.156380 143.117676
[L_forearm]
39 322.776093 0.000000 -0.000119 0.000442 -0.002305 -111.718391 322.776093
40 322.776093 0.000000 -0.000119 0.000442 -0.002305 -111.718391 322.776093
[L_front_hand]
39 241.149185 -0.042021 -3.300071 -179.659958 -2.242151 -0.019832 241.171753
40 241.149185 -0.042021 -3.300071 -179.659958 -2.242151 -0.019832 241.171753
[L_weapon_bone]
39 156.183838 0.000000 0.000000 0.000014 0.000007 0.000001 156.183838
40 156.183838 0.000000 0.000000 0.000014 0.000007 0.000001 156.183838
[L_front_hand01_01]
39 86.095154 20.947098 -0.655860 -0.366594 -0.477154 75.385574 88.609184
40 86.095154 20.947098 -0.655860 -0.366594 -0.477154 75.385574 88.609184
[L_front_hand02_01]
39 86.935165 -11.437475 24.513514 154.399796 -59.883835 -61.369587 91.046425
40 86.935165 -11.437475 24.513514 154.399796 -59.883835 -61.369587 91.046425
[L_front_hand03_01]
39 86.637497 -14.123976 -20.424902 -153.913849 58.118122 -62.702866 90.126129
40 86.637497 -14.123976 -20.424902 -153.913849 58.118122 -62.702866 90.126129
[L_front_hand01_02]
39 71.020905 -0.000179 0.000030 0.000334 -0.002323 -106.379684 71.020905
40 71.020905 -0.000179 0.000030 0.000334 -0.002323 -106.379684 71.020905
[L_front_hand02_02]
39 71.020927 -0.000119 0.000060 0.000334 -0.002323 -106.379684 71.020927
40 71.020927 -0.000119 0.000060 0.000334 -0.002323 -106.379684 71.020927
[L_front_hand03_02]
39 71.020905 -0.000060 0.000060 0.000334 -0.002323 -106.379684 71.020905
40 71.020905 -0.000060 0.000060 0.000334 -0.002323 -106.379684 71.020905
[R_forearm]
39 322.776428 -0.000060 0.000030 0.211305 0.032976 -99.623016 322.776428
40 322.776428 -0.000060 0.000030 0.211305 0.032976 -99.623016 322.776428
[R_front_hand]
39 238.847015 -0.006795 2.210259 -0.270529 1.703932 2.322530 238.857239
40 238.847015 -0.006795 2.210259 -0.270529 1.703932 2.322530 238.857239
[R_weapon_bone]
39 155.664093 0.002503 -0.000030 0.003487 0.001180 -90.988930 155.664078
40 155.664093 0.002503 -0.000030 0.003487 0.001180 -90.988930 155.664078
[R_front_hand01_01]
39 87.624611 14.231146 22.918642 -154.633499 -59.950619 61.746044 91.683487
40 87.624611 14.231146 22.918642 -154.633499 -59.950619 61.746044 91.683487
[R_front_hand02_01]
39 89.356956 14.367283 -19.491137 154.602661 58.302849 63.744389 92.579636
40 89.356956 14.367283 -19.491137 154.602661 58.302849 63.744389 92.579636
[R_front_hand03_01]
39 87.286232 -22.307278 -0.143439 0.162155 -0.423168 -75.767921 90.091743
40 87.286232 -22.307278 -0.143439 0.162155 -0.423168 -75.767921 90.091743
[R_front_hand01_02]
39 71.020905 0.000060 0.000119 0.002323 -0.000334 106.381714 71.020905
40 71.020905 0.000060 0.000119 0.002323 -0.000334 106.381714 71.020905
[R_front_hand02_02]
39 71.020844 -0.000030 -0.000119 0.002323 -0.000334 106.381714 71.020836
40 71.020844 -0.000030 -0.000119 0.002323 -0.000334 106.381714 71.020836
[R_front_hand03_02]
39 71.020905 0.000000 0.000030 0.002323 -0.000334 106.381714 71.020905
40 71.020905 0.000000 0.000030 0.002323 -0.000334 106.381714 71.020905
[null_rope01_connect]
39 328.732483 0.000000 -0.000238 155.396088 -76.688560 -127.303085 328.732483
40 328.732483 0.000000 -0.000238 155.387924 -75.816963 -126.494164 328.732483
[Rope1_Seg01]
39 0.000000 0.000000 0.000000 -137.033722 59.292622 -123.394638 0.000000
40 0.000000 0.000000 0.000000 -133.415344 60.307892 -121.145294 0.000000
[Rope1_Seg02]
39 139.999863 -0.000179 0.000000 23.669662 -6.864193 -13.599260 139.999863
40 139.999863 -0.000179 0.000000 23.600126 -7.453691 -13.827657 139.999863
[Rope1_Seg03]
39 139.999924 0.000060 -0.000060 16.560875 -9.380911 -6.151527 139.999924
40 139.999924 0.000060 -0.000060 16.110081 -9.921155 -6.049462 139.999924
[Rope1_Seg04]
39 139.999924 -0.000060 -0.000119 8.825371 -9.179832 -0.842591 139.999924
40 139.999924 -0.000060 -0.000119 8.459876 -9.464313 -0.769569 139.999924
[Rope1_Seg05]
39 139.999832 0.000119 -0.000060 2.826332 -0.828027 -2.675711 139.999832
40 139.999832 0.000119 -0.000060 2.241476 -0.372363 -2.632531 139.999832
[Rope1_Seg06]
39 139.999954 0.000119 -0.000060 1.172942 6.030139 -8.294374 139.999954
40 139.999954 0.000119 -0.000060 -0.803495 7.600327 -8.366433 139.999954
[Rope1_Seg07]
39 139.999985 0.000060 0.000000 4.859982 11.075161 -14.800296 139.999985
40 139.999985 0.000060 0.000000 -8.751462 14.587182 -14.965252 139.999985
[Rope1_Seg09]
39 121.602913 0.000119 -0.000089 -89.793175 -1.359789 0.847147 121.602913
40 121.602913 0.000119 -0.000089 -89.793175 -1.359789 0.847147 121.602913
[L_mid_hand01]
39 103.859421 1.038730 8.195221 106.855484 -31.239275 -9.461397 104.187431
40 103.859421 1.038730 8.195221 106.855484 -31.239275 -9.461397 104.187431
[L_mid_hand02]
39 105.572853 -4.139662 -10.864139 -142.331345 25.752670 -28.774628 106.211075
40 105.572853 -4.139662 -10.864139 -142.331345 25.752670 -28.774628 106.211075
[L_mid_hand03]
39 104.641464 17.579376 -3.913581 -16.122810 9.734291 34.223598 106.179977
40 104.641464 17.579376 -3.913581 -16.122810 9.734291 34.223598 106.179977
[null_rope02_connect]
39 328.732849 0.000179 -0.000119 169.911545 81.007011 -36.603386 328.732849
40 328.732849 0.000179 -0.000119 168.746613 81.213112 -38.453308 328.732849
[Rope2_Seg01]
39 0.000000 0.000000 0.000000 122.569519 54.718277 -108.654190 0.000000
40 0.000000 0.000000 0.000000 123.596931 54.588066 -107.382172 0.000000
[Rope2_Seg02]
39 139.999741 -0.000060 -0.000119 1.452234 9.322075 -7.264274 139.999756
40 139.999741 -0.000060 -0.000119 1.190925 7.895496 -5.997183 139.999756
[Rope2_Seg03]
39 140.000107 0.000030 0.000000 4.859446 6.447120 -8.299891 140.000107
40 140.000107 0.000030 0.000000 2.833063 4.111015 -5.319386 140.000107
[Rope2_Seg04]
39 139.999802 0.000000 -0.000060 1.431309 9.716086 -5.686921 139.999802
40 139.999802 0.000000 -0.000060 1.545365 10.797123 -6.563124 139.999802
[Rope2_Seg05]
39 139.999985 -0.000060 0.000119 -7.155973 8.642039 -0.798071 139.999985
40 139.999985 -0.000060 0.000119 -0.927783 9.694715 -4.162852 139.999985
[Rope2_Seg06]
39 139.999893 -0.000030 -0.000119 -3.922369 3.907871 -0.404499 139.999893
40 139.999893 -0.000030 -0.000119 0.234351 3.908945 -1.880751 139.999893
[Rope2_Seg07]
39 139.999893 0.000060 -0.000060 -3.133208 2.407229 -0.148291 139.999893
40 139.999893 0.000060 -0.000060 0.299269 2.349253 -1.164582 139.999893
[Rope2_Seg09]
39 121.338966 0.000089 -0.000060 33.793236 -1.359788 -0.847141 121.338966
40 121.338966 0.000089 -0.000060 33.793236 -1.359788 -0.847141 121.338966
[R_mid_hand01]
39 104.680779 11.144459 -10.335981 -41.523792 25.424656 28.595957 105.778534
40 104.680779 11.144459 -10.335981 -41.523792 25.424656 28.595957 105.778534
[R_mid_hand02]
39 104.070427 2.443552 8.231699 72.847389 -32.746803 10.013901 104.424065
40 104.070427 2.443552 8.231699 72.847389 -32.746803 10.013901 104.424065
[R_mid_hand03]
39 106.028137 -11.221827 -5.996406 -167.901306 10.259192 -37.009720 106.788818
40 106.028137 -11.221827 -5.996406 -167.901306 10.259192 -37.009720 106.788818
[spine02]
39 129.756927 0.001550 0.000119 0.360061 -4.044797 -12.915058 129.756927
40 129.756927 0.001550 0.000119 0.360061 -4.044797 -12.915058 129.756927
[spine03]
39 78.613846 0.087372 -4.898873 1.896495 3.831288 16.473045 78.766380
40 78.613846 0.087372 -4.898873 1.896495 3.831288 16.473045 78.766380
[pelvis]
39 169.435242 0.051022 0.000000 -0.060465 -0.180225 14.087930 169.435257
40 169.435242 0.051022 0.000000 -0.060465 -0.180225 14.087930 169.435257
[null_rope03_connect]
39 -1.257226 -2.466202 137.391083 -159.503860 -89.311867 -163.586563 137.418976
40 -1.257226 -2.466202 137.391083 -159.503860 -89.311867 -163.586563 137.418976
[null_rope04_connect]
39 -1.259640 -2.480268 -137.844437 -159.503860 -89.311867 -163.586563 137.872513
40 -1.259640 -2.480268 -137.844437 -159.503860 -89.311867 -163.586563 137.872513
[Rope3_Seg01]
39 0.000000 0.000000 0.000000 -132.075974 11.758123 -84.117142 0.000000
40 0.000000 0.000000 0.000000 -131.780472 12.721245 -81.674957 0.000000
[Rope3_Seg02]
39 139.999924 -0.000119 0.000060 -0.747365 1.119298 8.608552 139.999924
40 139.999924 -0.000119 0.000060 -0.318214 2.431860 8.754357 139.999924
[Rope3_Seg03]
39 139.999924 -0.000119 0.000119 -1.346132 2.897161 11.554856 139.999924
40 139.999924 -0.000119 0.000119 -0.549039 4.633956 11.805680 139.999924
[Rope3_Seg04]
39 139.999924 0.000119 0.000000 -2.203975 5.984778 15.868177 139.999924
40 139.999924 0.000119 0.000000 -0.251390 8.462143 16.174181 139.999924
[Rope3_Seg05]
39 139.999924 -0.000238 0.000060 -4.290586 -13.641838 -7.391416 139.999924
40 139.999924 -0.000238 0.000060 -5.825201 -14.147927 -5.825261 139.999924
[Rope3_Seg06]
39 139.999893 -0.000119 -0.000060 0.836627 -14.862343 -15.108382 139.999893
40 139.999893 -0.000119 -0.000060 0.007469 -16.334612 -14.175230 139.999893
[Rope3_Seg07]
39 139.999771 0.000060 -0.000119 0.546793 -6.482112 -5.331621 139.999771
40 139.999771 0.000060 -0.000119 0.362859 -6.847905 -4.956317 139.999771
[Rope3_Seg08]
39 139.999985 -0.000060 0.000000 0.639477 -3.722425 -3.023129 139.999985
40 139.999985 -0.000060 0.000000 0.563246 -3.918325 -2.813867 139.999985
[Rope3_Seg09]
39 90.185997 -0.000179 -0.000060 89.793228 -1.359877 -0.847183 90.185997
40 90.185997 -0.000179 -0.000060 89.793228 -1.359877 -0.847183 90.185997
[R_rear_hand01]
39 103.366196 -6.073594 -10.757982 -161.551193 16.666374 -30.088671 104.101845
40 103.366196 -6.073594 -10.757982 -161.551193 16.666374 -30.088671 104.101845
[R_rear_hand02]
39 100.509819 12.039542 -7.992327 -34.280552 19.289745 28.875523 101.543350
40 100.509819 12.039542 -7.992327 -34.280552 19.289745 28.875523 101.543350
[R_rear_hand03]
39 101.539970 5.215704 5.435467 83.366440 -30.933914 7.284830 101.819031
40 101.539970 5.215704 5.435467 83.366440 -30.933914 7.284830 101.819031
[Rope4_Seg01]
39 0.000010 0.000038 -0.000114 52.780190 36.204327 -96.646942 0.000121
40 0.000010 0.000038 -0.000114 54.653473 35.840061 -93.078506 0.000121
[Rope4_Seg02]
39 139.999985 0.000060 0.000119 -0.261741 -4.436867 -0.483120 139.999985
40 139.999985 0.000060 0.000119 -0.125476 -5.215065 -1.557109 139.999985
[Rope4_Seg03]
39 139.999924 0.000000 -0.000238 -0.121196 -5.565440 -0.834192 139.999924
40 139.999924 0.000000 -0.000238 0.036686 -6.406747 -2.130464 139.999924
[Rope4_Seg04]
39 139.999985 0.000000 0.000119 0.748083 -12.085441 -6.526439 139.999985
40 139.999985 0.000000 0.000119 0.905634 -12.553562 -8.294843 139.999985
[Rope4_Seg05]
39 139.999802 -0.000060 -0.000119 0.899842 0.106493 6.836793 139.999802
40 139.999802 -0.000060 -0.000119 0.873234 -1.253890 4.949704 139.999802
[Rope4_Seg06]
39 139.999924 0.000000 0.000060 1.634263 13.892154 19.884659 139.999924
40 139.999924 0.000000 0.000060 2.082952 12.534736 19.721691 139.999924
[Rope4_Seg07]
39 139.999802 0.000000 0.000000 -1.741419 6.098800 10.190791 139.999802
40 139.999802 0.000000 0.000000 -1.352401 6.074469 10.828027 139.999802
[Rope4_Seg08]
39 139.999924 0.000000 0.000119 -3.364730 3.080830 5.808730 139.999924
40 139.999924 0.000000 0.000119 -3.182257 3.067707 6.190404 139.999924
[Rope4_Seg09]
39 90.185791 0.000060 0.000060 -135.617828 2.228885 0.850567 90.185791
40 90.185791 0.000060 0.000060 -135.617828 2.228885 0.850567 90.185791
[L_rear_hand01]
39 101.696655 -8.392275 -7.654577 -34.454281 -18.946800 151.655121 102.329041
40 101.696655 -8.392275 -7.654577 -34.454281 -18.946800 151.655121 102.329041
[L_rear_hand02]
39 102.726799 -1.568258 5.773216 83.407906 30.330435 172.796509 102.900848
40 102.726799 -1.568258 5.773216 83.407906 30.330435 172.796509 102.900848
[L_rear_hand03]
39 104.552910 9.721220 -10.420293 -161.379868 -16.473232 -150.512238 105.519653
40 104.552910 9.721220 -10.420293 -161.379868 -16.473232 -150.512238 105.519653
